<?xml version="1.0" encoding="UTF-8" standalone="no"?>
<!-- Creator: CorelDRAW 2018 (64-Bit) -->

<svg
   xml:space="preserve"
   width="90mm"
   height="90mm"
   version="1.1"
   style="clip-rule:evenodd;fill-rule:evenodd;image-rendering:optimizeQuality;shape-rendering:geometricPrecision;text-rendering:geometricPrecision"
   viewBox="0 0 9000 9000"
   id="svg238"
   sodipodi:docname="adapt.svg"
   inkscape:version="1.1.2 (0a00cf5339, 2022-02-04, custom)"
   inkscape:export-filename="C:\Users\rix133\OneDriveUT\PSG458\design\adapt512.png"
   inkscape:export-xdpi="144.49779"
   inkscape:export-ydpi="144.49779"
   xmlns:inkscape="http://www.inkscape.org/namespaces/inkscape"
   xmlns:sodipodi="http://sodipodi.sourceforge.net/DTD/sodipodi-0.dtd"
   xmlns="http://www.w3.org/2000/svg"
   xmlns:svg="http://www.w3.org/2000/svg"><sodipodi:namedview
   id="namedview240"
   pagecolor="#ffffff"
   bordercolor="#666666"
   borderopacity="1.0"
   inkscape:pageshadow="2"
   inkscape:pageopacity="0.0"
   inkscape:pagecheckerboard="0"
   inkscape:document-units="mm"
   showgrid="false"
   fit-margin-top="1"
   fit-margin-left="1"
   fit-margin-right="1"
   fit-margin-bottom="1"
   inkscape:zoom="0.98525794"
   inkscape:cx="392.79054"
   inkscape:cy="267.95014"
   inkscape:window-width="1200"
   inkscape:window-height="1857"
   inkscape:window-x="1912"
   inkscape:window-y="-364"
   inkscape:window-maximized="1"
   inkscape:current-layer="Layer_x0020_1" />
 <defs
   id="defs150">
  <style
   type="text/css"
   id="style148">
   <![CDATA[
    .str0 {stroke:white;stroke-width:20;stroke-miterlimit:22.9256}
    .fil1 {fill:#FEFEFE}
    .fil0 {fill:#7690C9}
   ]]>
  </style>
 </defs>
 <g
   id="Layer_x0020_1"
   inkscape:label="Layer 1"
   inkscape:groupmode="layer"
   transform="translate(-3265.76,-3419.4183)">
  <metadata
   id="CorelCorpID_0Corel-Layer" />
  <rect
   style="opacity:0.5;fill:#ffffff;stroke-width:325.51"
   id="rect1160"
   width="8808.1846"
   height="8781.3301"
   x="3373.9688"
   y="3552.8977"
   ry="804.48938"
   rx="832.4812" /><path
   class="fil0"
   d="m 8960.1367,6821.9634 709.82,-1194.45 c 69.91,19.99 142.36,34.39 218.41,34.39 438.5203,0 792.9303,-354.62 792.9303,-792.36 0,-437.6 -354.41,-792.01 -792.9303,-792.01 -437.74,0 -792.01,354.27 -792.01,792.01 0,217.28 87.63,413.66 229.21,556.94 l -707.55,1191.05 c 121.67,55.15 236.41,123.93 342.12,204.43 z"
   id="path153" />
  <path
   class="fil0"
   d="m 11408.057,7821.8634 c -340.78,0 -629.45,216.57 -741.38,518.45 l -986.1303,-97.31 c 0,7.49 1.13,14.55 1.13,21.89 0,128.52 -14.19,254.07 -39.82,375.32 l 985.7003,97.3 c 59.6,378.14 385.27,668.16 780.43,668.16 437.6,0 791.8,-354.28 791.8,-791.8 0.07,-437.39 -354.13,-792.01 -791.73,-792.01 z"
   id="path155" />
  <path
   class="fil0"
   d="m 6101.0367,8647.3434 -1227.49,411.19 c -141.65,-216.37 -385.42,-359.85 -662.86,-359.85 -437.81,0 -792.01,354.41 -792.01,792.01 0,438.09 354.27,792.5706 792.01,792.5706 437.39,0 792.58,-354.4106 792.58,-792.5706 0,-18.29 -3.96,-35.1 -5.44,-53.03 l 1231.44,-412.32 c -55.57,-119.84 -99.63,-245.95 -128.23,-378 z"
   id="path157" />
  <circle
   class="fil0"
   cx="7870.9165"
   cy="8264.8936"
   r="1358.48"
   id="circle159" />
  <g
   id="seagull-svgrepo-com.svg"
   transform="translate(52.916672,105.83334)">
   <g
   id="g169">
    <g
   id="g167">
     <g
   id="g165">
      <path
   class="fil0"
   d="m 5823.8,5404.55 c 44.33,-7.97 77.12,-43.37 82.93,-86.57 93.51,-695.59 559.49,-1317.44 1264.09,-1576.26 l 0.78,-0.29 c 31.03,-11.38 55.43,-36.84 63.5,-68.88 14.83,-58.9 -22.23,-113.64 -76.97,-125.26 -228.07,-48.4 -472.06,-35.24 -707.07,51.08 -441.09,162.02 -739.6,540.94 -819.24,971.79 -5.26,28.44 -20.36,54.78 -44.55,70.66 -38.22,25.09 -86.73,21.5 -120.56,-6.27 -339.81,-278.84 -814.19,-375.53 -1256.65,-213 -233.87,85.9 -427.62,232.79 -569.93,416.06 -25.74,33.16 -30.65,79.04 -9.51,115.31 25.02,42.91 76.75,61.04 122.39,44.23 0.41,-0.14 0.81,-0.29 1.22,-0.44 703.52,-258.41 1459.97,-86.99 1981.43,381.02 24.01,21.55 56.39,32.52 88.14,26.82 z"
   id="path161" />
      <path
   class="fil0"
   d="m 7472.04,5872.92 c -159.58,-88.13 -345.08,-133.83 -540.53,-122.76 -367.98,20.84 -678.34,237.61 -835.52,543.29 -12.88,25.03 -38.04,41.39 -66.16,42.97 -28.1,1.58 -54.89,-11.87 -70.51,-35.29 -190.7,-285.94 -523.52,-466.26 -891.49,-445.42 -195.44,11.07 -374.59,77.42 -523.2,183 -28.74,20.42 -40.49,57.37 -28.84,90.65 11.66,33.26 43.93,54.87 79.12,52.86 0.34,-0.02 0.67,-0.04 1.01,-0.06 585.98,-33.18 1113.51,268.25 1396.69,738.29 15.19,25.21 43.09,39.96 72.48,38.31 29.39,-1.65 55.49,-19.41 67.73,-46.19 228.29,-499.04 718.45,-858.13 1304.45,-891.32 0.33,-0.02 0.66,-0.04 1,-0.06 35.22,-1.96 64.87,-27.02 72.71,-61.41 7.83,-34.4 -8.07,-69.8 -38.94,-86.86 z"
   id="path163" />
     </g>
    </g>
   </g>
   <g
   id="g171">
   </g>
   <g
   id="g173">
   </g>
   <g
   id="g175">
   </g>
   <g
   id="g177">
   </g>
   <g
   id="g179">
   </g>
   <g
   id="g181">
   </g>
   <g
   id="g183">
   </g>
   <g
   id="g185">
   </g>
   <g
   id="g187">
   </g>
   <g
   id="g189">
   </g>
   <g
   id="g191">
   </g>
   <g
   id="g193">
   </g>
   <g
   id="g195">
   </g>
   <g
   id="g197">
   </g>
   <g
   id="g199">
   </g>
  </g>
  <g
   id="fish-svgrepo-com.svg"
   transform="translate(52.916672,105.83334)">
   <path
   class="fil0"
   d="m 10279.35,10391.13 c 13.21,-35.74 -2.98,-75.66 -37.35,-92.07 -0.66,-0.31 -16.37,-7.81 -44.44,-19.67 -184.32,-77.91 -802.09,-304.37 -1381.72,-126.77 l -317.88,-194.46 c -8.13,-4.98 -16.7,-9.38 -25.43,-13.07 -81.14,-34.29 -174.69,-8.95 -227.5,61.64 l -271.4,362.67 c -31.48,42.06 -44.11,93.77 -35.6,145.6 8.53,51.84 37.05,96.79 80.31,126.56 l 50.45,34.71 c -93.02,111.48 -168.63,224.76 -227.89,325.56 l -618.24,-111.47 c -61.26,-11.03 -121.12,14.02 -156.23,65.42 -35.1,51.4 -36.68,116.29 -4.12,169.32 3.93,6.4 8.82,12.17 14.5,17.09 l 301.07,261.34 c 54.76,47.54 83.77,119.03 77.63,191.29 l -33.82,397.23 c -0.65,7.5 -0.12,15.04 1.51,22.38 11.15,49.72 44.28,89.55 90.92,109.27 67.77,28.64 144.95,7 187.67,-52.66 l 366.11,-511.28 c 93.52,25.66 200.68,49.53 316.28,65.6 l -80.06,167.15 c -23.54,49.09 -8.36,107.51 36.08,138.92 l 120.4,85.13 c 6.55,4.64 13.61,8.57 20.98,11.68 54.45,23.02 117.39,-0.62 143.27,-53.82 l 161.78,-332.25 c 153.48,-9.89 310.99,-40.58 463.63,-102.51 703.19,-285.36 1016.11,-1113.43 1029.09,-1148.53 z m -638.17,159.79 -13.84,1.93 c -27.31,3.8 -53.92,-0.16 -77.59,-10.16 -46.25,-19.55 -81.34,-62.23 -88.77,-115.58 -11.21,-80.65 45.08,-155.12 125.73,-166.35 l 13.84,-1.92 c 80.68,-11.22 155.13,45.08 166.35,125.73 11.22,80.65 -45.07,155.13 -125.72,166.35 z"
   id="path202" />
   <g
   id="g204">
   </g>
   <g
   id="g206">
   </g>
   <g
   id="g208">
   </g>
   <g
   id="g210">
   </g>
   <g
   id="g212">
   </g>
   <g
   id="g214">
   </g>
   <g
   id="g216">
   </g>
   <g
   id="g218">
   </g>
   <g
   id="g220">
   </g>
   <g
   id="g222">
   </g>
   <g
   id="g224">
   </g>
   <g
   id="g226">
   </g>
   <g
   id="g228">
   </g>
   <g
   id="g230">
   </g>
   <g
   id="g232">
   </g>
  </g>
  
 </g>
</svg>
