<?xml version="1.0" encoding="UTF-8" standalone="no"?>
<!-- Created with Inkscape (http://www.inkscape.org/) -->

<svg
   width="120"
   height="120"
   viewBox="0 0 120 120"
   version="1.1"
   id="svg1"
   xml:space="preserve"
   inkscape:version="1.3.2 (091e20e, 2023-11-25, custom)"
   sodipodi:docname="bird.svg"
   xmlns:inkscape="http://www.inkscape.org/namespaces/inkscape"
   xmlns:sodipodi="http://sodipodi.sourceforge.net/DTD/sodipodi-0.dtd"
   xmlns="http://www.w3.org/2000/svg"
   xmlns:svg="http://www.w3.org/2000/svg"><sodipodi:namedview
     id="namedview1"
     pagecolor="#ffffff"
     bordercolor="#666666"
     borderopacity="1.0"
     inkscape:showpageshadow="2"
     inkscape:pageopacity="0.0"
     inkscape:pagecheckerboard="0"
     inkscape:deskcolor="#d1d1d1"
     inkscape:document-units="px"
     inkscape:zoom="7.6416667"
     inkscape:cx="39.651036"
     inkscape:cy="67.328244"
     inkscape:window-width="1920"
     inkscape:window-height="1137"
     inkscape:window-x="-8"
     inkscape:window-y="239"
     inkscape:window-maximized="1"
     inkscape:current-layer="layer1" /><defs
     id="defs1" /><g
     inkscape:label="Kiht 1"
     inkscape:groupmode="layer"
     id="layer1"><g
       id="g1"
       transform="matrix(1.2494521,0,0,1.2178998,-11.889551,-9.1629724)"><path
         style="opacity:1;fill:#1a1a1a;stroke:#000000;stroke-width:1px;stroke-linecap:butt;stroke-linejoin:miter;stroke-opacity:0"
         d="m 30.621592,30.229008 1.7012,6.543075 c 0,0 -1.243454,3.841129 -0.654308,6.019629 0.589146,2.1785 3.390799,2.768356 3.925845,6.281352 0.535046,3.512996 -7.470476,3.719876 -12.562704,9.814613 -5.092228,6.094737 -14.8880408,43.002133 -9.55289,45.016363 5.33515,2.01422 19.554115,-0.77595 24.732825,-6.019639 5.178709,-5.243688 7.324456,-28.748559 15.049072,-29.312972 7.724616,-0.564414 9.0107,19.462211 10.992366,26.172301 1.981666,6.71009 20.937842,-8.505998 20.937842,-8.505998 z"
         id="path1"
         sodipodi:nodetypes="cczzzzzzzcc" /><path
         style="opacity:1;fill:#1a1a1a;stroke:#000000;stroke-width:1px;stroke-linecap:butt;stroke-linejoin:miter;stroke-opacity:0"
         d="m 30.639259,30.265697 7.118944,1.057239 c 0,0 3.84113,-1.243454 6.01963,-0.654308 2.1785,0.589146 2.76836,3.390799 6.281363,3.925845 3.512996,0.535046 3.850738,-7.077886 10.861505,-11.908393 7.010768,-4.830507 39.730589,-13.9720101 42.529989,-9.55289 2.7994,4.419119 -1.16853,18.768942 -6.412224,23.947652 -5.24369,5.178709 -26.916492,7.455318 -27.480905,15.179934 -0.564414,7.724616 19.462206,9.0107 26.172296,10.992366 6.710093,1.981666 -10.992362,23.293344 -10.992362,23.293344 z"
         id="path1-5"
         sodipodi:nodetypes="cczzzzzzzcc" /></g></g></svg>
