<?xml version="1.0" encoding="UTF-8" standalone="no"?>
<!-- Created with Inkscape (http://www.inkscape.org/) -->

<svg
   width="120"
   height="120"
   viewBox="0 0 120 120"
   version="1.1"
   id="svg1"
   xml:space="preserve"
   inkscape:version="1.1 (c68e22c387, 2021-05-23)"
   sodipodi:docname="bird.svg"
   xmlns:inkscape="http://www.inkscape.org/namespaces/inkscape"
   xmlns:sodipodi="http://sodipodi.sourceforge.net/DTD/sodipodi-0.dtd"
   xmlns="http://www.w3.org/2000/svg"
   xmlns:svg="http://www.w3.org/2000/svg"><sodipodi:namedview
     id="namedview1"
     pagecolor="#ffffff"
     bordercolor="#666666"
     borderopacity="1.0"
     inkscape:showpageshadow="2"
     inkscape:pageopacity="0.0"
     inkscape:pagecheckerboard="0"
     inkscape:deskcolor="#d1d1d1"
     inkscape:document-units="px"
     inkscape:zoom="5.6568543"
     inkscape:cx="33.852737"
     inkscape:cy="90.244503"
     inkscape:window-width="1920"
     inkscape:window-height="1017"
     inkscape:window-x="-8"
     inkscape:window-y="167"
     inkscape:window-maximized="1"
     inkscape:current-layer="layer1"
     inkscape:pageshadow="2"
     showgrid="false" /><defs
     id="defs1" /><g
     inkscape:label="Kiht 1"
     inkscape:groupmode="layer"
     id="layer1"><path
       id="path1"
       style="fill:#1a1a1a;stroke:#000000;stroke-width:1.23358px;stroke-linecap:butt;stroke-linejoin:miter;stroke-opacity:0"
       d="M 111.91406 5.4023438 C 99.667103 5.4397627 71.345706 13.686799 64.228516 18.466797 C 55.468898 24.34987 55.04557 33.620383 50.65625 32.96875 C 46.266921 32.317118 45.530526 28.90502 42.808594 28.1875 C 40.086663 27.469979 35.287109 28.984375 35.287109 28.984375 L 26.419922 27.701172 C 26.419922 27.701172 27.646022 33.682082 28.496094 35.621094 C 28.496094 35.621094 26.941624 40.29993 27.677734 42.953125 C 28.413844 45.60632 31.91547 46.325039 32.583984 50.603516 C 33.252498 54.881994 23.249214 55.133862 16.886719 62.556641 C 10.524224 69.97942 -1.7148435 114.92773 4.9511719 117.38086 C 11.617186 119.83398 29.382966 116.43707 35.853516 110.05078 C 42.324065 103.66449 45.004713 75.037008 54.65625 74.349609 C 64.307788 73.66221 65.914629 98.052388 68.390625 106.22461 C 70.866622 114.39682 94.177734 95.931641 94.177734 95.931641 L 94.414062 95.726562 C 96.644103 93.071604 115.6234 70.147982 107.7207 67.873047 C 99.33677 65.459576 74.314322 63.894137 75.019531 54.486328 C 75.724738 45.07852 102.80373 42.305195 109.35547 35.998047 C 115.90722 29.690897 120.86491 12.214075 117.36719 6.8320312 C 116.71137 5.8228978 114.74028 5.3937086 111.91406 5.4023438 z " /></g></svg>
