<?xml version="1.0" encoding="UTF-8" standalone="no"?>
<!-- Created with Inkscape (http://www.inkscape.org/) -->

<svg
   width="116.73604"
   height="114.02764"
   viewBox="0 0 116.73604 114.02764"
   version="1.1"
   id="svg1"
   xml:space="preserve"
   xmlns="http://www.w3.org/2000/svg"
   xmlns:svg="http://www.w3.org/2000/svg"><defs
     id="defs1" /><g
     id="layer1"
     transform="translate(-2.4036166,-4.7854221)"><path
       id="path1"
       style="fill:#1a1a1a;stroke:#000000;stroke-width:1.23358px;stroke-linecap:butt;stroke-linejoin:miter;stroke-opacity:0"
       transform="translate(2.4036166,4.7854221)"
       d="M 109.50977,0.6171875 C 97.262811,0.6546064 68.941409,8.9016426 61.824219,13.681641 c -8.759618,5.883073 -9.182946,15.153586 -13.572266,14.501953 -4.389329,-0.651632 -5.125724,-4.06373 -7.847656,-4.78125 -2.721931,-0.717521 -7.521485,0.796875 -7.521485,0.796875 l -8.867187,-1.283203 c 0,0 1.2261,5.980909 2.076172,7.919922 0,0 -1.55447,4.678836 -0.818359,7.332031 0.73611,2.653195 4.237735,3.371913 4.90625,7.65039 0.668514,4.278478 -9.334771,4.530346 -15.697266,11.953125 -6.3624951,7.422779 -18.6015624,52.371086 -11.935547,54.824216 6.6660141,2.45312 24.431794,-0.94378 30.902344,-7.33008 6.470549,-6.386285 9.151197,-35.013768 18.802734,-35.701167 9.651538,-0.687399 11.258379,23.702777 13.734375,31.874997 2.475997,8.17221 27.142578,-11.810544 27.142578,-11.810544 0,0 20.090204,-24.26608 12.187504,-26.541015 -8.383931,-2.413471 -33.406385,-3.97891 -32.701176,-13.386719 0.705207,-9.407808 27.784196,-12.181133 34.335936,-18.488281 6.55175,-6.30715 11.50944,-23.7839722 8.01172,-29.166016 -0.65582,-1.0091333 -2.6269,-1.4383227 -5.45312,-1.4296875 z" /></g></svg>
